<?xml version="1.0" encoding="utf-8"?>
<!-- Generator: Adobe Illustrator 21.1.0, SVG Export Plug-In . SVG Version: 6.00 Build 0)  -->
<svg version="1.1" id="Capa_1" xmlns="http://www.w3.org/2000/svg" xmlns:xlink="http://www.w3.org/1999/xlink" x="0px" y="0px"
	 viewBox="0 0 409.2 409.2" style="enable-background:new 0 0 409.2 409.2;" xml:space="preserve">
<style type="text/css">
	.st0{fill:#D4D9E4;}
</style>
<g>
	<g>
		<path class="st0" d="M204.6,216.7c50.7,0,91.7-48.1,91.7-107.4c0-82.2-41.1-107.4-91.7-107.4c-50.7,0-91.7,25.1-91.7,107.4
			C112.8,168.6,153.9,216.7,204.6,216.7z"/>
		<path class="st0" d="M407.2,374.7l-46.3-104.3c-2.1-4.8-5.8-8.7-10.5-11.1l-71.8-37.4c-1.6-0.8-3.5-0.7-4.9,0.4
			c-20.3,15.4-44.2,23.5-69.1,23.5c-24.9,0-48.8-8.1-69.1-23.5c-1.4-1.1-3.3-1.2-4.9-0.4l-71.8,37.4c-4.6,2.4-8.3,6.4-10.5,11.1
			L2,374.7c-3.2,7.2-2.5,15.4,1.8,22c4.3,6.6,11.5,10.5,19.4,10.5H386c7.9,0,15.1-3.9,19.4-10.5
			C409.7,390.1,410.4,381.9,407.2,374.7z"/>
	</g>
</g>
</svg>
