<?xml version="1.0" encoding="utf-8"?>
<!-- Generator: Adobe Illustrator 21.1.0, SVG Export Plug-In . SVG Version: 6.00 Build 0)  -->
<svg version="1.1" id="Capa_1" xmlns="http://www.w3.org/2000/svg" xmlns:xlink="http://www.w3.org/1999/xlink" x="0px" y="0px"
	 viewBox="0 0 17.9 17.9" style="enable-background:new 0 0 17.9 17.9;" xml:space="preserve">
<style type="text/css">
	.st0{fill:#DAAC23;}
</style>
<g>
	<g>
		<polygon class="st0" points="16.2,4.6 16.2,4.2 14,4.2 14,6 16.2,6 16.2,5.5 17.9,5.5 17.9,4.6 		"/>
		<polygon class="st0" points="16.2,8 14,8 14,9.9 16.2,9.9 16.2,9.4 17.9,9.4 17.9,8.5 16.2,8.5 		"/>
		<polygon class="st0" points="16.2,12 14,12 14,13.8 16.2,13.8 16.2,13.3 17.9,13.3 17.9,12.4 16.2,12.4 		"/>
		<polygon class="st0" points="1.7,4.8 0,4.8 0,5.7 1.7,5.7 1.7,6.2 3.9,6.2 3.9,4.3 1.7,4.3 		"/>
		<polygon class="st0" points="1.7,8.6 0,8.6 0,9.6 1.7,9.6 1.7,10 3.9,10 3.9,8.2 1.7,8.2 		"/>
		<polygon class="st0" points="1.7,12.6 0,12.6 0,13.5 1.7,13.5 1.7,14 3.9,14 3.9,12.1 1.7,12.1 		"/>
		<path class="st0" d="M13.2,3.5H4.7c-0.2,0-0.4,0.2-0.4,0.4v10.2c0,0.2,0.2,0.4,0.4,0.4h8.5c0.2,0,0.4-0.2,0.4-0.4V3.8
			C13.6,3.6,13.5,3.5,13.2,3.5z M6.1,6.1c-0.4,0-0.8-0.4-0.8-0.8s0.4-0.8,0.8-0.8s0.8,0.4,0.8,0.8S6.5,6.1,6.1,6.1z"/>
	</g>
</g>
</svg>
