<?xml version="1.0" encoding="utf-8"?>
<!-- Generator: Adobe Illustrator 21.1.0, SVG Export Plug-In . SVG Version: 6.00 Build 0)  -->
<svg version="1.1" id="Layer_1" xmlns="http://www.w3.org/2000/svg" xmlns:xlink="http://www.w3.org/1999/xlink" x="0px" y="0px"
	 viewBox="0 0 391 391" style="enable-background:new 0 0 391 391;" xml:space="preserve">
<style type="text/css">
	.st0{fill:#D4D9E4;}
</style>
<g id="XMLID_517_">
	<path id="XMLID_518_" class="st0" d="M290.5,15c0-8.3-6.7-15-15-15h-160c-8.3,0-15,6.7-15,15v45h190V15z"/>
	<path id="XMLID_519_" class="st0" d="M45.5,240h15h30h55h100h55h30h15c8.3,0,15-6.7,15-15v-60c0-0.1,0-0.2,0-0.4c0-0.3,0-0.6,0-0.9
		c0-0.2,0-0.4-0.1-0.6c0-0.3-0.1-0.6-0.1-0.8c0-0.2-0.1-0.5-0.2-0.7c-0.1-0.2-0.1-0.5-0.2-0.7c-0.1-0.3-0.2-0.6-0.3-0.8
		c-0.1-0.2-0.1-0.4-0.2-0.6c-0.1-0.3-0.3-0.6-0.4-0.9c0-0.1-0.1-0.2-0.1-0.3l-30-60c-2.5-5.1-7.7-8.3-13.4-8.3h-80h-80h-80
		c-5.7,0-10.9,3.2-13.4,8.3l-30,60c-0.1,0.1-0.1,0.2-0.1,0.3c-0.1,0.3-0.3,0.6-0.4,0.9c-0.1,0.2-0.1,0.4-0.2,0.6
		c-0.1,0.3-0.2,0.5-0.3,0.8c-0.1,0.2-0.1,0.5-0.2,0.7s-0.1,0.5-0.2,0.7c-0.1,0.3-0.1,0.6-0.1,0.8c0,0.2,0,0.4-0.1,0.6
		c0,0.3,0,0.6,0,0.9c0,0.1,0,0.2,0,0.4v60C30.5,233.3,37.2,240,45.5,240z"/>
	<path id="XMLID_520_" class="st0" d="M210.5,368v23h15h70h20c8.3,0,15-6.7,15-15V270h-270v106c0,8.3,6.7,15,15,15h20h70h15v-23v-7
		v-15c0-8.3,6.7-15,15-15s15,6.7,15,15v15V368z"/>
</g>
</svg>
