<?xml version="1.0" encoding="utf-8"?>
<!-- Generator: Adobe Illustrator 21.1.0, SVG Export Plug-In . SVG Version: 6.00 Build 0)  -->
<svg version="1.1" id="Capa_1" xmlns="http://www.w3.org/2000/svg" xmlns:xlink="http://www.w3.org/1999/xlink" x="0px" y="0px"
	 viewBox="0 0 96.5 96.5" style="enable-background:new 0 0 96.5 96.5;" xml:space="preserve">
<style type="text/css">
	.st0{fill:#D4D9E4;}
</style>
<g>
	<g>
		<path class="st0" d="M48.2,0C21.6,0,0,21.6,0,48.2s21.6,48.2,48.2,48.2s48.2-21.6,48.2-48.2C96.5,21.6,74.9,0,48.2,0z M48.2,88.5
			C26.1,88.5,8,70.4,8,48.2C8,26.1,26.1,8,48.2,8c22.2,0,40.2,18.1,40.2,40.2C88.5,70.4,70.4,88.5,48.2,88.5z"/>
		<path class="st0" d="M48.2,16.4c-17.6,0-31.9,14.3-31.9,31.9s14.3,31.9,31.9,31.9s31.9-14.3,31.9-31.9S65.8,16.4,48.2,16.4z
			 M48.2,72.1c-13.2,0-23.9-10.7-23.9-23.9s10.7-23.9,23.9-23.9s23.9,10.7,23.9,23.9S61.4,72.1,48.2,72.1z"/>
		<circle class="st0" cx="48.2" cy="48.2" r="14.9"/>
	</g>
</g>
</svg>
