<?xml version="1.0" encoding="utf-8"?>
<!-- Generator: Adobe Illustrator 21.1.0, SVG Export Plug-In . SVG Version: 6.00 Build 0)  -->
<svg version="1.1" id="Capa_1" xmlns="http://www.w3.org/2000/svg" xmlns:xlink="http://www.w3.org/1999/xlink" x="0px" y="0px"
	 viewBox="0 0 26 26" style="enable-background:new 0 0 26 26;" xml:space="preserve">
<style type="text/css">
	.st0{fill:#D4D9E4;}
</style>
<g>
	<path id="_x3C_Group_x3E__41_" class="st0" d="M17.7,20.4V9.3h-3.7v11.2L17.7,20.4L17.7,20.4z M23.2,20.4V9.3h-3.7v11.2L23.2,20.4
		L23.2,20.4z M25.1,7.1L13,0L0.9,7.1c0,0-0.8,0.8,0,1.3h24.2C25.1,8.4,25.8,7.8,25.1,7.1z M12.1,20.4V9.3H8.4v11.2L12.1,20.4
		L12.1,20.4z M6.5,20.4V9.3H2.8v11.2L6.5,20.4L6.5,20.4z M24.3,21.8L2,21.8l-2,2.7V26h26v-1.5L24.3,21.8z"/>
</g>
</svg>
