<?xml version="1.0" encoding="utf-8"?>
<!-- Generator: Adobe Illustrator 21.1.0, SVG Export Plug-In . SVG Version: 6.00 Build 0)  -->
<svg version="1.1" id="Layer_1" xmlns="http://www.w3.org/2000/svg" xmlns:xlink="http://www.w3.org/1999/xlink" x="0px" y="0px"
	 viewBox="0 0 426.7 426.7" style="enable-background:new 0 0 426.7 426.7;" xml:space="preserve">
<style type="text/css">
	.st0{fill:#D4D9E4;}
</style>
<g>
	<g>
		<rect x="192" y="298.7" class="st0" width="42.7" height="42.7"/>
	</g>
</g>
<g>
	<g>
		<path class="st0" d="M213.3,0C95.5,0,0,95.5,0,213.3s95.5,213.3,213.3,213.3s213.3-95.5,213.3-213.3S331.2,0,213.3,0z
			 M213.3,388.1c-96.5,0-174.7-78.2-174.7-174.7S116.8,38.6,213.3,38.6c96.4,0.1,174.6,78.3,174.7,174.7
			C388.1,309.8,309.8,388.1,213.3,388.1z"/>
	</g>
</g>
<g>
	<g>
		<path class="st0" d="M296.3,150.4c-11-45.8-57-74.1-102.9-63.1c-38.5,9.2-65.6,43.8-65.5,83.4h42.7c2-23.6,22.7-41,46.3-39
			s41,22.7,39,46.3c-4.4,21.2-23.4,36.2-45,35.4c-10.5,0-19,8.5-19,19l0,0v45h42.7V253C279.8,241.4,307.2,195.7,296.3,150.4z"/>
	</g>
</g>
</svg>
