<?xml version="1.0" encoding="utf-8"?>
<!-- Generator: Adobe Illustrator 21.1.0, SVG Export Plug-In . SVG Version: 6.00 Build 0)  -->
<svg version="1.1" id="Capa_1" xmlns="http://www.w3.org/2000/svg" xmlns:xlink="http://www.w3.org/1999/xlink" x="0px" y="0px"
	 viewBox="0 0 33 33" style="enable-background:new 0 0 33 33;" xml:space="preserve">
<style type="text/css">
	.st0{fill:#D4D9E4;}
</style>
<g>
	<path class="st0" d="M15.2,3.3v8.6c0,1.8-1.5,3.3-3.3,3.3H3.3c-1.8,0-3.3-1.5-3.3-3.3V3.3C0,1.5,1.5,0,3.3,0h8.6
		C13.7,0,15.2,1.5,15.2,3.3z M29.7,0h-8.6c-1.8,0-3.3,1.5-3.3,3.3v8.6c0,1.8,1.5,3.3,3.3,3.3h8.6c1.8,0,3.3-1.5,3.3-3.3V3.3
		C33,1.5,31.5,0,29.7,0z M11.9,17.8H3.3c-1.8,0-3.3,1.5-3.3,3.3v8.6C0,31.5,1.5,33,3.3,33h8.6c1.8,0,3.3-1.5,3.3-3.3v-8.6
		C15.2,19.3,13.7,17.8,11.9,17.8z M29.7,17.8h-8.6c-1.8,0-3.3,1.5-3.3,3.3v8.6c0,1.8,1.5,3.3,3.3,3.3h8.6c1.8,0,3.3-1.5,3.3-3.3
		v-8.6C33,19.3,31.5,17.8,29.7,17.8z"/>
</g>
</svg>
